<?xml version="1.0" standalone="no"?>
<!DOCTYPE svg PUBLIC "-//W3C//DTD SVG 20010904//EN"
 "http://www.w3.org/TR/2001/REC-SVG-20010904/DTD/svg10.dtd">
<svg version="1.0" xmlns="http://www.w3.org/2000/svg"
 width="218.000000pt" height="218.000000pt" viewBox="0 0 218.000000 218.000000"
 preserveAspectRatio="xMidYMid meet">
<defs><style>.a{fill:none;stroke:currentColor;stroke-linecap:round;stroke-linejoin:round;stroke-width:1.5px;}</style></defs>
<g transform="translate(0.000000,218.000000) scale(0.100000,-0.100000)"
 stroke="none">
<path d="M1779 2157 c-56 -21 -97 -54 -125 -103 -22 -38 -26 -53 -21 -97 3
-29 9 -64 12 -78 6 -24 -14 -45 -227 -245 -299 -281 -290 -274 -306 -274 -8 0
-39 7 -70 16 -111 32 -238 4 -321 -72 -65 -58 -85 -105 -86 -194 0 -90 19
-135 82 -197 47 -45 98 -68 189 -86 l58 -12 60 -209 60 -208 -41 -34 c-50 -42
-78 -106 -70 -164 20 -153 200 -234 346 -155 162 88 141 297 -35 360 -27 9
-56 20 -64 24 -9 5 -38 89 -73 212 l-59 203 24 18 c77 60 99 83 123 133 35 70
37 154 6 218 -12 24 -21 49 -21 56 0 7 37 47 82 89 45 42 163 152 261 245
l179 167 77 -6 c89 -8 129 2 191 47 47 34 79 95 80 150 0 19 -12 60 -27 90
-23 43 -38 59 -79 82 -63 33 -152 44 -205 24z m151 -92 c41 -21 60 -53 60
-101 0 -84 -85 -141 -171 -115 -106 32 -128 143 -43 210 32 25 111 28 154 6z
m-927 -796 c79 -22 146 -115 132 -183 -23 -109 -154 -176 -262 -135 -34 13
-80 55 -99 91 -31 60 -8 149 50 192 58 43 112 54 179 35z m256 -945 c89 -35
102 -142 26 -202 -39 -31 -120 -30 -166 1 -80 53 -66 163 26 203 40 18 67 17
114 -2z"/>
<path d="M355 2143 c-116 -29 -136 -187 -30 -237 110 -53 236 19 222 127 -11
82 -100 133 -192 110z"/>
<path d="M487 1849 c-13 -8 -15 -14 -7 -30 19 -34 67 -17 55 20 -7 23 -21 26
-48 10z"/>
<path d="M553 1747 c-21 -12 -22 -14 -8 -34 13 -19 19 -21 40 -11 20 9 22 14
13 34 -13 27 -15 28 -45 11z"/>
<path d="M622 1647 c-25 -12 -27 -17 -9 -40 8 -11 20 -15 35 -11 24 7 28 21 9
45 -9 12 -17 14 -35 6z"/>
<path d="M677 1537 c-15 -10 -16 -15 -4 -31 9 -13 20 -16 35 -12 24 8 28 26
10 44 -15 15 -20 15 -41 -1z"/>
<path d="M743 1437 c-21 -12 -22 -14 -8 -34 13 -19 19 -21 40 -11 28 13 29 16
11 41 -15 20 -15 20 -43 4z"/>
<path d="M576 957 c-15 -11 -17 -17 -7 -35 10 -19 15 -20 36 -10 27 12 32 27
13 46 -15 15 -20 15 -42 -1z"/>
<path d="M1295 937 c-14 -20 -13 -22 11 -35 23 -12 27 -11 40 5 18 25 18 28
-11 41 -21 10 -27 8 -40 -11z"/>
<path d="M463 908 c-27 -13 -27 -17 -9 -41 13 -17 17 -17 41 -5 26 14 26 15 8
35 -15 18 -22 19 -40 11z"/>
<path d="M1410 879 c-13 -23 -13 -22 17 -38 19 -10 24 -8 34 11 10 18 8 24 -7
35 -24 18 -31 17 -44 -8z"/>
<path d="M125 861 c-73 -18 -122 -86 -108 -151 8 -42 55 -87 104 -100 59 -16
108 -3 153 42 37 36 38 41 34 88 -5 50 -30 90 -68 110 -25 13 -83 18 -115 11z"/>
<path d="M346 847 c-15 -11 -17 -17 -7 -35 10 -19 15 -21 34 -11 30 16 30 15
17 38 -13 25 -20 26 -44 8z"/>
<path d="M1529 828 c-10 -18 -8 -24 7 -35 24 -18 31 -17 44 8 13 23 13 22 -17
38 -19 10 -24 8 -34 -11z"/>
<path d="M1642 769 c-15 -23 -15 -22 15 -38 18 -9 24 -8 37 11 15 21 14 23 -7
35 -29 16 -30 16 -45 -8z"/>
<path d="M1761 718 c-12 -19 -11 -23 5 -35 23 -17 29 -16 44 2 13 16 7 30 -19
44 -13 7 -20 5 -30 -11z"/>
<path d="M1964 700 c-18 -6 -46 -26 -63 -45 -102 -117 61 -270 200 -188 78 46
78 177 0 218 -39 20 -99 26 -137 15z"/>
</g>
</svg>

